<svg width="78" height="20" viewBox="0 0 78 20" fill="none" xmlns="http://www.w3.org/2000/svg">
<path d="M11.6139 12.7942L1.52286 10.0898L0 15.7716L15.7728 19.9988L18.0053 11.6707L12.3236 10.1478L11.6139 12.7942Z" fill="white" style="fill:white;fill-opacity:1;"/>
<path d="M1.99463 8.32816L4.22719 0L20 4.22719L18.4772 9.90691L8.38609 7.20254L7.6764 9.84898L1.99463 8.32816Z" fill="#3178C6" style="fill:#3178C6;fill:color(display-p3 0.1922 0.4706 0.7765);fill-opacity:1;"/>
<path d="M31.5 17V2.4H35.84C36.8267 2.4 37.68 2.59333 38.4 2.98C39.1333 3.35333 39.7 3.88 40.1 4.56C40.5 5.24 40.7 6.04 40.7 6.96V12.42C40.7 13.34 40.5 14.1467 40.1 14.84C39.7 15.52 39.1333 16.0533 38.4 16.44C37.68 16.8133 36.8267 17 35.84 17H31.5ZM34 14.76H35.84C36.56 14.76 37.1333 14.5533 37.56 14.14C37.9867 13.7133 38.2 13.14 38.2 12.42V6.96C38.2 6.25333 37.9867 5.69333 37.56 5.28C37.1333 4.85333 36.56 4.64 35.84 4.64H34V14.76ZM47.9922 17.18C46.5789 17.18 45.4589 16.7867 44.6322 16C43.8055 15.2 43.3922 14.1267 43.3922 12.78V10.22C43.3922 8.86 43.8055 7.78667 44.6322 7C45.4589 6.21333 46.5789 5.82 47.9922 5.82C49.4055 5.82 50.5255 6.21333 51.3522 7C52.1789 7.78667 52.5922 8.86 52.5922 10.22V12.78C52.5922 14.1267 52.1789 15.2 51.3522 16C50.5255 16.7867 49.4055 17.18 47.9922 17.18ZM47.9922 15C48.6589 15 49.1722 14.82 49.5322 14.46C49.9055 14.0867 50.0922 13.5533 50.0922 12.86V10.14C50.0922 9.44667 49.9055 8.92 49.5322 8.56C49.1722 8.18667 48.6589 8 47.9922 8C47.3255 8 46.8055 8.18667 46.4322 8.56C46.0722 8.92 45.8922 9.44667 45.8922 10.14V12.86C45.8922 13.5533 46.0722 14.0867 46.4322 14.46C46.8055 14.82 47.3255 15 47.9922 15ZM60.1644 17.2C59.2177 17.2 58.391 17.0267 57.6844 16.68C56.991 16.32 56.451 15.82 56.0644 15.18C55.6777 14.5267 55.4844 13.76 55.4844 12.88V10.12C55.4844 9.24 55.6777 8.48 56.0644 7.84C56.451 7.18667 56.991 6.68667 57.6844 6.34C58.391 5.98 59.2177 5.8 60.1644 5.8C61.5377 5.8 62.6377 6.16 63.4644 6.88C64.3044 7.58667 64.7444 8.55333 64.7844 9.78H62.3244C62.2844 9.20667 62.0644 8.76667 61.6644 8.46C61.2777 8.14 60.7777 7.98 60.1644 7.98C59.4844 7.98 58.951 8.16667 58.5644 8.54C58.1777 8.9 57.9844 9.42 57.9844 10.1V12.88C57.9844 13.56 58.1777 14.0867 58.5644 14.46C58.951 14.8333 59.4844 15.02 60.1644 15.02C60.791 15.02 61.2977 14.8667 61.6844 14.56C62.071 14.24 62.2844 13.7933 62.3244 13.22H64.7844C64.7444 14.4467 64.3044 15.42 63.4644 16.14C62.6377 16.8467 61.5377 17.2 60.1644 17.2ZM71.5166 17.18C70.2099 17.18 69.1766 16.8867 68.4166 16.3C67.6566 15.7 67.2766 14.8933 67.2766 13.88H69.7366C69.7366 14.3067 69.8899 14.6333 70.1966 14.86C70.5166 15.0867 70.9566 15.2 71.5166 15.2H72.3966C72.9966 15.2 73.4566 15.0867 73.7766 14.86C74.1099 14.6333 74.2766 14.3067 74.2766 13.88C74.2766 13.48 74.1632 13.1867 73.9366 13C73.7099 12.8 73.3632 12.6667 72.8966 12.6L70.1566 12.24C69.2766 12.12 68.5966 11.78 68.1166 11.22C67.6499 10.66 67.4166 9.93333 67.4166 9.04C67.4166 8 67.7632 7.20667 68.4566 6.66C69.1499 6.1 70.1499 5.82 71.4566 5.82H72.3766C73.6032 5.82 74.5899 6.1 75.3366 6.66C76.0832 7.22 76.4699 7.96667 76.4966 8.9H74.0166C74.0032 8.55333 73.8499 8.28 73.5566 8.08C73.2632 7.86667 72.8699 7.76 72.3766 7.76H71.4566C70.9232 7.76 70.5166 7.87333 70.2366 8.1C69.9566 8.31333 69.8166 8.60667 69.8166 8.98C69.8166 9.31333 69.9166 9.56 70.1166 9.72C70.3299 9.88 70.6366 9.98 71.0366 10.02L73.6166 10.38C74.6299 10.5 75.3899 10.86 75.8966 11.46C76.4166 12.0467 76.6766 12.84 76.6766 13.84C76.6766 14.9067 76.3099 15.7333 75.5766 16.32C74.8566 16.8933 73.7966 17.18 72.3966 17.18H71.5166Z" fill="white" style="fill:white;fill-opacity:1;"/>
</svg>
