<svg width="303" height="35" viewBox="0 0 303 35" fill="none" xmlns="http://www.w3.org/2000/svg">
<path fill-rule="evenodd" clip-rule="evenodd" d="M185.889 17.1111C185.889 14.2003 186.777 11.4969 188.298 9.25734L191.97 12.9297C191.314 14.1861 190.944 15.615 190.944 17.1304C190.944 18.5267 191.258 19.8494 191.82 21.0316L188.134 24.7182C186.713 22.528 185.889 19.9159 185.889 17.1111ZM195.944 9.00986L192.287 5.35292C194.476 3.93465 197.087 3.11111 199.889 3.11111C207.621 3.11111 213.889 9.37914 213.889 17.1111C213.889 24.8431 207.621 31.1111 199.889 31.1111C196.98 31.1111 194.279 30.2241 192.04 28.7058L195.65 25.0959C196.95 25.8129 198.445 26.2209 200.034 26.2209C205.054 26.2209 209.124 22.151 209.124 17.1304C209.124 12.1099 205.054 8.03997 200.034 8.03997C198.563 8.03997 197.173 8.38942 195.944 9.00986ZM196.978 14.0741C195.276 15.7758 195.276 18.5348 196.978 20.2365C198.679 21.9381 201.438 21.9381 203.14 20.2365C204.842 18.5348 204.842 15.7758 203.14 14.0741C201.438 12.3724 198.679 12.3724 196.978 14.0741Z" fill="black" style="fill:black;fill-opacity:1;"/>
<path d="M222.631 28V7.06304H227.971L232.046 18.0655C232.44 19.2318 233.114 21.3255 233.606 22.9555C234.097 21.3255 234.772 19.2318 235.151 18.0655L239.156 7.06304H244.524V28H240.87V17.3207C240.87 15.8454 240.941 13.5268 240.997 11.3769C240.252 13.7376 239.535 16.0421 239.086 17.3207L235.095 28H232.06L228.041 17.3207C227.606 16.0983 226.903 13.9343 226.172 11.672C226.214 13.7376 226.285 15.9156 226.285 17.3207V28H222.631ZM253.812 28.3372C249.358 28.3372 246.576 25.0913 246.576 20.5948C246.576 16.0842 249.513 12.8242 253.672 12.8242C257.944 12.8242 260.782 15.9858 260.782 20.5385V21.5081H250.047C250.131 23.925 251.508 25.541 253.897 25.541C255.681 25.541 256.876 24.6838 257.283 23.4192H260.599C260.038 26.3279 257.283 28.3372 253.812 28.3372ZM250.075 19.0632H257.381C257.157 16.9413 255.78 15.6346 253.728 15.6346C251.676 15.6346 250.314 16.9413 250.075 19.0632ZM270.45 13.1615V16.014H267.429V23.7424C267.429 24.7963 267.78 25.1475 268.932 25.1475H270.45V28H268.315C265.293 28 263.874 26.8056 263.874 24.2622V16.014H261.288V13.1615H263.874V9.11462H267.429V13.1615H270.45ZM272.109 28V13.1615H275.523V15.6205H275.566C276.113 13.9203 277.252 13.0209 279.163 13.0209C279.641 13.0209 280.034 13.049 280.315 13.0772V16.2248C280.048 16.1826 279.345 16.1123 278.643 16.1123C276.957 16.1123 275.65 17.2786 275.65 19.5971V28H272.109ZM281.903 28V13.1615H285.444V28H281.903ZM283.674 10.9553C282.466 10.9553 281.552 10.0841 281.552 8.93192C281.552 7.79372 282.466 6.92252 283.674 6.92252C284.882 6.92252 285.796 7.79372 285.796 8.93192C285.796 10.0841 284.882 10.9553 283.674 10.9553ZM288.017 28V7.06304H291.558V19.1756H291.6L297.375 13.1615H301.632L295.605 19.569L301.998 28H297.768L292.906 21.6487L291.558 23.0398V28H288.017Z" fill="black" style="fill:black;fill-opacity:1;"/>
<path d="M9.31622 28.3372C4.13118 28.3372 1.02577 25.6534 1.02577 21.1709H4.66515C4.69325 23.7002 6.43565 25.2037 9.34438 25.2037C11.9579 25.2037 13.6863 24.0234 13.6863 22.1826C13.6863 20.7072 12.5903 19.8501 9.79401 19.2036L7.54574 18.6978C3.35834 17.7423 1.43327 15.9015 1.43327 12.9647C1.43327 9.22701 4.51058 6.7258 9.1336 6.7258C13.8128 6.7258 16.7214 9.25509 16.8479 13.4144H13.321C13.1664 11.2082 11.5645 9.87335 9.11952 9.87335C6.801 9.87335 5.15695 11.0678 5.15695 12.7821C5.15695 14.1872 6.23893 14.9741 8.96498 15.6064L11.0868 16.0983C15.4287 17.0678 17.3819 18.8805 17.3819 21.9578C17.3819 25.8641 14.2765 28.3372 9.31622 28.3372ZM19.4059 33.8736V13.1615H22.8907V15.227H22.9329C23.8603 13.6533 25.5043 12.8664 27.4293 12.8664C31.2514 12.8664 33.8369 15.9999 33.8369 20.5667C33.8369 25.1897 31.2936 28.2951 27.4153 28.2951C25.4762 28.2951 23.9164 27.452 22.9891 25.7658H22.9469V33.8736H19.4059ZM26.5863 25.3302C28.7783 25.3302 30.2538 23.644 30.2538 20.5667C30.2538 17.5034 28.7783 15.8032 26.5863 15.8032C24.2678 15.8032 22.7502 17.6861 22.7502 20.5667C22.7502 23.4614 24.2678 25.3302 26.5863 25.3302ZM42.3528 28.3372C37.9827 28.3372 35.0319 25.2037 35.0319 20.5948C35.0319 15.9858 37.9827 12.8242 42.3528 12.8242C46.7228 12.8242 49.6737 15.9858 49.6737 20.5948C49.6737 25.2037 46.7228 28.3372 42.3528 28.3372ZM42.3528 25.3724C44.6292 25.3724 46.0765 23.5456 46.0765 20.5948C46.0765 17.6299 44.6151 15.7891 42.3528 15.7891C40.0764 15.7891 38.615 17.6158 38.615 20.5948C38.615 23.5597 40.0624 25.3724 42.3528 25.3724ZM55.0982 19.6112V28H51.5572V13.1615H55.042V15.4378C56.0537 13.7657 57.5573 12.8664 59.5947 12.8664C62.7002 12.8664 64.8922 14.9179 64.8922 18.7259V28H61.3371V19.288C61.3371 17.1099 60.2411 15.9718 58.3441 15.9718C56.4893 15.9718 55.0982 17.0819 55.0982 19.6112ZM73.2957 28.3513C69.6844 28.3513 67.0005 26.6089 66.7757 23.4192H70.2746C70.4291 24.8665 71.4689 25.6955 73.2394 25.6955C74.9537 25.6955 75.9936 24.9508 75.9936 23.8969C75.9936 22.9976 75.2208 22.4777 73.9702 22.2107L71.4408 21.6908C68.6024 21.1006 67.1129 19.6534 67.1129 17.405C67.1129 14.679 69.4595 12.8382 73.0849 12.8382C76.6821 12.8382 79.1412 14.7352 79.2252 17.7844H75.8952C75.8671 16.4636 74.7851 15.494 73.1692 15.494C71.6095 15.494 70.654 16.2809 70.654 17.2926C70.654 18.1779 71.3846 18.7259 72.6212 18.9929L75.291 19.5409C78.2281 20.1591 79.5908 21.452 79.5908 23.6299C79.5908 26.5246 76.9631 28.3513 73.2957 28.3513ZM88.0647 28.3372C83.6943 28.3372 80.7435 25.2037 80.7435 20.5948C80.7435 15.9858 83.6943 12.8242 88.0647 12.8242C92.4342 12.8242 95.3851 15.9858 95.3851 20.5948C95.3851 25.2037 92.4342 28.3372 88.0647 28.3372ZM88.0647 25.3724C90.3412 25.3724 91.7879 23.5456 91.7879 20.5948C91.7879 17.6299 90.3264 15.7891 88.0647 15.7891C85.7881 15.7891 84.3267 17.6158 84.3267 20.5948C84.3267 23.5597 85.7741 25.3724 88.0647 25.3724ZM97.2689 28V13.1615H100.683V15.6205H100.725C101.274 13.9203 102.412 13.0209 104.323 13.0209C104.801 13.0209 105.194 13.049 105.475 13.0772V16.2248C105.208 16.1826 104.505 16.1123 103.803 16.1123C102.117 16.1123 100.81 17.2786 100.81 19.5971V28H97.2689ZM113.302 28.3372C108.848 28.3372 106.066 25.0913 106.066 20.5948C106.066 16.0842 109.002 12.8242 113.162 12.8242C117.434 12.8242 120.272 15.9858 120.272 20.5385V21.5081H109.537C109.621 23.925 110.998 25.541 113.387 25.541C115.171 25.541 116.366 24.6838 116.773 23.4192H120.09C119.527 26.3279 116.773 28.3372 113.302 28.3372ZM109.565 19.0632H116.871C116.646 16.9413 115.27 15.6346 113.218 15.6346C111.166 15.6346 109.804 16.9413 109.565 19.0632ZM127.846 28.2951C123.968 28.2951 121.425 25.1897 121.425 20.5667C121.425 15.9999 124.01 12.8664 127.818 12.8664C129.743 12.8664 131.331 13.6392 132.287 15.2692H132.315V7.06304H135.856V28H132.371V25.7377H132.343C131.416 27.452 129.785 28.2951 127.846 28.2951ZM128.676 25.3302C130.994 25.3302 132.512 23.4614 132.512 20.5667C132.512 17.6861 130.994 15.8032 128.676 15.8032C126.484 15.8032 125.008 17.5034 125.008 20.5667C125.008 23.644 126.484 25.3302 128.676 25.3302ZM152.381 28.2951C150.442 28.2951 148.812 27.452 147.885 25.7377H147.857V28H144.372V7.06304H147.913V15.2692H147.941C148.897 13.6392 150.47 12.8664 152.395 12.8664C156.217 12.8664 158.804 15.9999 158.804 20.5667C158.804 25.1897 156.26 28.2951 152.381 28.2951ZM151.552 25.3302C153.745 25.3302 155.22 23.644 155.22 20.5667C155.22 17.5034 153.745 15.8032 151.552 15.8032C149.234 15.8032 147.716 17.6861 147.716 20.5667C147.716 23.4614 149.234 25.3302 151.552 25.3302ZM160.42 33.8736V30.993H162.176C163.132 30.993 163.581 30.5153 164.003 29.349L164.551 27.9157L158.832 13.1615H162.584L165.31 20.8899C165.675 21.9859 166.041 23.082 166.378 24.1779C166.715 23.082 167.066 21.9859 167.445 20.8899L170.158 13.1615H173.868L167.235 30.445C166.35 32.7635 164.888 33.8736 162.738 33.8736H160.42Z" fill="black" style="fill:black;fill-opacity:1;"/>
</svg>
