<svg width="389" height="45" viewBox="0 0 389 45" fill="none" xmlns="http://www.w3.org/2000/svg">
<path fill-rule="evenodd" clip-rule="evenodd" d="M239 22C239 18.2575 240.142 14.7817 242.097 11.9023L246.819 16.6239C245.975 18.2393 245.499 20.0764 245.499 22.0248C245.499 23.82 245.903 25.5207 246.626 27.0406L241.887 31.7805C240.06 28.9646 239 25.6061 239 22ZM251.928 11.5841L247.226 6.88231C250.041 5.05881 253.397 3.99999 257 3.99999C266.941 3.99999 275 12.0589 275 22C275 31.9411 266.941 40 257 40C253.26 40 249.787 38.8595 246.909 36.9074L251.55 32.2661C253.221 33.188 255.143 33.7126 257.186 33.7126C263.641 33.7126 268.874 28.4798 268.874 22.0248C268.874 15.5699 263.641 10.3371 257.186 10.3371C255.295 10.3371 253.508 10.7864 251.928 11.5841ZM253.257 18.0953C251.069 20.2832 251.069 23.8304 253.257 26.0183C255.445 28.2061 258.992 28.2061 261.18 26.0183C263.368 23.8304 263.368 20.2832 261.18 18.0953C258.992 15.9074 255.445 15.9074 253.257 18.0953Z" fill="white"/>
<path d="M286.24 36V9.08105H293.105L298.345 23.2271C298.851 24.7266 299.718 27.4185 300.35 29.5142C300.982 27.4185 301.85 24.7266 302.337 23.2271L307.486 9.08105H314.388V36H309.69V22.2695C309.69 20.3726 309.781 17.3916 309.853 14.6274C308.896 17.6626 307.974 20.6255 307.396 22.2695L302.265 36H298.363L293.196 22.2695C292.636 20.6978 291.732 17.9155 290.793 15.0068C290.847 17.6626 290.938 20.4629 290.938 22.2695V36H286.24ZM326.33 36.4336C320.603 36.4336 317.026 32.2603 317.026 26.479C317.026 20.6797 320.802 16.4883 326.15 16.4883C331.642 16.4883 335.291 20.5532 335.291 26.4067V27.6533H321.489C321.597 30.7607 323.367 32.8384 326.439 32.8384C328.733 32.8384 330.269 31.7363 330.793 30.1104H335.056C334.334 33.8501 330.793 36.4336 326.33 36.4336ZM321.525 24.5098H330.919C330.63 21.7817 328.86 20.1016 326.222 20.1016C323.584 20.1016 321.832 21.7817 321.525 24.5098ZM347.722 16.9219V20.5894H343.837V30.5259C343.837 31.8809 344.289 32.3325 345.77 32.3325H347.722V36H344.976C341.091 36 339.267 34.4644 339.267 31.1943V20.5894H335.942V16.9219H339.267V11.7188H343.837V16.9219H347.722ZM349.854 36V16.9219H354.244V20.0835H354.299C355.003 17.8975 356.467 16.7412 358.924 16.7412C359.538 16.7412 360.044 16.7773 360.405 16.8135V20.8604C360.062 20.8062 359.158 20.7158 358.255 20.7158C356.087 20.7158 354.407 22.2153 354.407 25.1963V36H349.854ZM362.447 36V16.9219H367V36H362.447ZM364.724 14.0854C363.17 14.0854 361.996 12.9653 361.996 11.4839C361.996 10.0205 363.17 8.90039 364.724 8.90039C366.277 8.90039 367.452 10.0205 367.452 11.4839C367.452 12.9653 366.277 14.0854 364.724 14.0854ZM370.307 36V9.08105H374.86V24.6543H374.914L382.339 16.9219H387.813L380.063 25.1602L388.283 36H382.845L376.594 27.834L374.86 29.6226V36H370.307Z" fill="white"/>
<path d="M11.978 36.4336C5.31152 36.4336 1.31885 32.9829 1.31885 27.2197H5.99805C6.03418 30.4717 8.27441 32.4048 12.0142 32.4048C15.3745 32.4048 17.5967 30.8872 17.5967 28.5205C17.5967 26.6235 16.1875 25.5215 12.5923 24.6904L9.70166 24.04C4.31787 22.8115 1.84277 20.4448 1.84277 16.6689C1.84277 11.8633 5.79932 8.64746 11.7432 8.64746C17.7593 8.64746 21.499 11.8994 21.6616 17.2471H17.127C16.9282 14.4106 14.8687 12.6943 11.7251 12.6943C8.74414 12.6943 6.63037 14.23 6.63037 16.4341C6.63037 18.2407 8.02148 19.2524 11.5264 20.0654L14.2544 20.6978C19.8369 21.9443 22.3481 24.2749 22.3481 28.2314C22.3481 33.2539 18.3555 36.4336 11.978 36.4336ZM24.9504 43.5518V16.9219H29.4309V19.5776H29.4851C30.6775 17.5542 32.7913 16.5425 35.2663 16.5425C40.1804 16.5425 43.5046 20.5713 43.5046 26.4429C43.5046 32.3867 40.2346 36.3794 35.2483 36.3794C32.7551 36.3794 30.7497 35.2954 29.5574 33.1274H29.5032V43.5518H24.9504ZM34.1824 32.5674C37.0007 32.5674 38.8977 30.3994 38.8977 26.4429C38.8977 22.5044 37.0007 20.3184 34.1824 20.3184C31.2014 20.3184 29.2502 22.7393 29.2502 26.4429C29.2502 30.1646 31.2014 32.5674 34.1824 32.5674ZM54.4536 36.4336C48.8349 36.4336 45.041 32.4048 45.041 26.479C45.041 20.5532 48.8349 16.4883 54.4536 16.4883C60.0722 16.4883 63.8662 20.5532 63.8662 26.479C63.8662 32.4048 60.0722 36.4336 54.4536 36.4336ZM54.4536 32.6216C57.3804 32.6216 59.2412 30.2729 59.2412 26.479C59.2412 22.667 57.3623 20.3003 54.4536 20.3003C51.5268 20.3003 49.6479 22.6489 49.6479 26.479C49.6479 30.291 51.5088 32.6216 54.4536 32.6216ZM70.8405 25.2144V36H66.2878V16.9219H70.7683V19.8486C72.0691 17.6987 74.0022 16.5425 76.6218 16.5425C80.6145 16.5425 83.4328 19.1802 83.4328 24.0762V36H78.862V24.7988C78.862 21.9985 77.4529 20.5352 75.0139 20.5352C72.6291 20.5352 70.8405 21.9624 70.8405 25.2144ZM94.2373 36.4517C89.5942 36.4517 86.1435 34.2114 85.8545 30.1104H90.353C90.5517 31.9712 91.8886 33.0371 94.165 33.0371C96.3691 33.0371 97.706 32.0796 97.706 30.7246C97.706 29.5684 96.7124 28.8999 95.1045 28.5566L91.8525 27.8882C88.2031 27.1294 86.288 25.2686 86.288 22.3779C86.288 18.873 89.3051 16.5063 93.9663 16.5063C98.5913 16.5063 101.753 18.9453 101.861 22.8657H97.5796C97.5434 21.1675 96.1523 19.9209 94.0747 19.9209C92.0693 19.9209 90.8408 20.9326 90.8408 22.2334C90.8408 23.3716 91.7802 24.0762 93.3701 24.4194L96.8027 25.124C100.579 25.9189 102.331 27.5811 102.331 30.3813C102.331 34.103 98.9526 36.4517 94.2373 36.4517ZM113.226 36.4336C107.607 36.4336 103.813 32.4048 103.813 26.479C103.813 20.5532 107.607 16.4883 113.226 16.4883C118.844 16.4883 122.638 20.5532 122.638 26.479C122.638 32.4048 118.844 36.4336 113.226 36.4336ZM113.226 32.6216C116.153 32.6216 118.013 30.2729 118.013 26.479C118.013 22.667 116.134 20.3003 113.226 20.3003C110.299 20.3003 108.42 22.6489 108.42 26.479C108.42 30.291 110.281 32.6216 113.226 32.6216ZM125.06 36V16.9219H129.45V20.0835H129.504C130.209 17.8975 131.672 16.7412 134.129 16.7412C134.744 16.7412 135.249 16.7773 135.611 16.8135V20.8604C135.268 20.8062 134.364 20.7158 133.461 20.7158C131.293 20.7158 129.613 22.2153 129.613 25.1963V36H125.06ZM145.674 36.4336C139.947 36.4336 136.37 32.2603 136.37 26.479C136.37 20.6797 140.146 16.4883 145.494 16.4883C150.986 16.4883 154.635 20.5532 154.635 26.4067V27.6533H140.833C140.941 30.7607 142.712 32.8384 145.783 32.8384C148.077 32.8384 149.613 31.7363 150.137 30.1104H154.401C153.678 33.8501 150.137 36.4336 145.674 36.4336ZM140.869 24.5098H150.263C149.974 21.7817 148.204 20.1016 145.566 20.1016C142.928 20.1016 141.176 21.7817 140.869 24.5098ZM164.374 36.3794C159.388 36.3794 156.118 32.3867 156.118 26.4429C156.118 20.5713 159.442 16.5425 164.338 16.5425C166.813 16.5425 168.854 17.5361 170.083 19.6318H170.119V9.08105H174.672V36H170.191V33.0913H170.155C168.963 35.2954 166.867 36.3794 164.374 36.3794ZM165.44 32.5674C168.421 32.5674 170.372 30.1646 170.372 26.4429C170.372 22.7393 168.421 20.3184 165.44 20.3184C162.622 20.3184 160.725 22.5044 160.725 26.4429C160.725 30.3994 162.622 32.5674 165.44 32.5674ZM195.919 36.3794C193.426 36.3794 191.33 35.2954 190.138 33.0913H190.102V36H185.621V9.08105H190.174V19.6318H190.21C191.439 17.5361 193.462 16.5425 195.937 16.5425C200.851 16.5425 204.176 20.5713 204.176 26.4429C204.176 32.3867 200.906 36.3794 195.919 36.3794ZM194.853 32.5674C197.672 32.5674 199.569 30.3994 199.569 26.4429C199.569 22.5044 197.672 20.3184 194.853 20.3184C191.872 20.3184 189.921 22.7393 189.921 26.4429C189.921 30.1646 191.872 32.5674 194.853 32.5674ZM206.254 43.5518V39.8481H208.512C209.741 39.8481 210.319 39.2339 210.861 37.7344L211.566 35.8916L204.213 16.9219H209.036L212.541 26.8584C213.011 28.2676 213.481 29.6768 213.914 31.0859C214.348 29.6768 214.799 28.2676 215.287 26.8584L218.774 16.9219H223.544L215.016 39.1436C213.878 42.1245 211.999 43.5518 209.235 43.5518H206.254Z" fill="white"/>
</svg>
