<svg width="114" height="21" viewBox="0 0 114 21" fill="none" xmlns="http://www.w3.org/2000/svg">
<g clip-path="url(#clip0_1467_3502)">
<path d="M0 0H20V20H0V0Z" fill="#CC0000" style="fill:#CC0000;fill:color(display-p3 0.8000 0.0000 0.0000);fill-opacity:1;"/>
<path d="M9.93244 2.14844H2.14844V17.8516H9.93164V6.10844H13.8916V17.8516H17.8516V2.14844H9.93244Z" fill="white" style="fill:white;fill-opacity:1;"/>
</g>
<path d="M31.54 17V2.4H36.4C37.3733 2.4 38.22 2.58667 38.94 2.96C39.6733 3.33333 40.24 3.86 40.64 4.54C41.04 5.20667 41.24 5.99333 41.24 6.9C41.24 7.80667 41.04 8.6 40.64 9.28C40.24 9.94667 39.6733 10.4667 38.94 10.84C38.22 11.2133 37.3733 11.4 36.4 11.4H34.04V17H31.54ZM34.04 9.2H36.4C37.1067 9.2 37.6667 8.98667 38.08 8.56C38.4933 8.13333 38.7 7.58 38.7 6.9C38.7 6.22 38.4933 5.66667 38.08 5.24C37.6667 4.81333 37.1067 4.6 36.4 4.6H34.04V9.2ZM46.7722 17.2C45.6522 17.2 44.7655 16.8867 44.1122 16.26C43.4722 15.62 43.1522 14.7867 43.1522 13.76C43.1522 12.6933 43.5189 11.8467 44.2522 11.22C44.9855 10.58 45.9922 10.26 47.2722 10.26H49.9522V9.48C49.9522 8.37333 49.3055 7.82 48.0122 7.82C47.4255 7.82 46.9589 7.93333 46.6122 8.16C46.2655 8.38667 46.0722 8.70667 46.0322 9.12H43.6322C43.6855 8.13333 44.0989 7.33333 44.8722 6.72C45.6589 6.10667 46.7122 5.8 48.0322 5.8C49.4322 5.8 50.5189 6.12667 51.2922 6.78C52.0655 7.43333 52.4522 8.35333 52.4522 9.54V17H50.0122V14.94C49.9189 15.6467 49.5855 16.2 49.0122 16.6C48.4389 17 47.6922 17.2 46.7722 17.2ZM47.5722 15.16C48.3055 15.16 48.8855 14.98 49.3122 14.62C49.7389 14.26 49.9522 13.78 49.9522 13.18V11.88H47.3922C46.8455 11.88 46.4122 12.0333 46.0922 12.34C45.7722 12.6467 45.6122 13.04 45.6122 13.52C45.6122 14.0133 45.7789 14.4133 46.1122 14.72C46.4589 15.0133 46.9455 15.16 47.5722 15.16ZM60.1644 17.2C59.2177 17.2 58.391 17.0267 57.6844 16.68C56.991 16.32 56.451 15.82 56.0644 15.18C55.6777 14.5267 55.4844 13.76 55.4844 12.88V10.12C55.4844 9.24 55.6777 8.48 56.0644 7.84C56.451 7.18667 56.991 6.68667 57.6844 6.34C58.391 5.98 59.2177 5.8 60.1644 5.8C61.5377 5.8 62.6377 6.16 63.4644 6.88C64.3044 7.58667 64.7444 8.55333 64.7844 9.78H62.3244C62.2844 9.20667 62.0644 8.76667 61.6644 8.46C61.2777 8.14 60.7777 7.98 60.1644 7.98C59.4844 7.98 58.951 8.16667 58.5644 8.54C58.1777 8.9 57.9844 9.42 57.9844 10.1V12.88C57.9844 13.56 58.1777 14.0867 58.5644 14.46C58.951 14.8333 59.4844 15.02 60.1644 15.02C60.791 15.02 61.2977 14.8667 61.6844 14.56C62.071 14.24 62.2844 13.7933 62.3244 13.22H64.7844C64.7444 14.4467 64.3044 15.42 63.4644 16.14C62.6377 16.8467 61.5377 17.2 60.1644 17.2ZM67.6166 17V2.4H70.1166V10.32H71.8766L74.4966 6H77.2766L74.0166 11.32L77.3966 17H74.5566L71.8766 12.44H70.1166V17H67.6166ZM82.7488 17.2C81.6288 17.2 80.7421 16.8867 80.0888 16.26C79.4488 15.62 79.1288 14.7867 79.1288 13.76C79.1288 12.6933 79.4954 11.8467 80.2288 11.22C80.9621 10.58 81.9688 10.26 83.2487 10.26H85.9288V9.48C85.9288 8.37333 85.2821 7.82 83.9888 7.82C83.4021 7.82 82.9354 7.93333 82.5888 8.16C82.2421 8.38667 82.0488 8.70667 82.0088 9.12H79.6088C79.6621 8.13333 80.0754 7.33333 80.8488 6.72C81.6354 6.10667 82.6888 5.8 84.0088 5.8C85.4088 5.8 86.4954 6.12667 87.2688 6.78C88.0421 7.43333 88.4288 8.35333 88.4288 9.54V17H85.9888V14.94C85.8954 15.6467 85.5621 16.2 84.9888 16.6C84.4154 17 83.6688 17.2 82.7488 17.2ZM83.5488 15.16C84.2821 15.16 84.8621 14.98 85.2888 14.62C85.7154 14.26 85.9288 13.78 85.9288 13.18V11.88H83.3688C82.8221 11.88 82.3888 12.0333 82.0688 12.34C81.7488 12.6467 81.5888 13.04 81.5888 13.52C81.5888 14.0133 81.7554 14.4133 82.0888 14.72C82.4354 15.0133 82.9221 15.16 83.5488 15.16ZM93.0009 20.6V18.52H96.1009C96.6876 18.52 97.1409 18.36 97.4609 18.04C97.7809 17.7333 97.9409 17.3133 97.9409 16.78V16.12L97.9809 14.4C97.7543 15.0133 97.3876 15.4933 96.8809 15.84C96.3876 16.1733 95.7809 16.34 95.0609 16.34C93.9409 16.34 93.0476 15.9667 92.3809 15.22C91.7276 14.46 91.4009 13.4333 91.4009 12.14V10C91.4009 8.72 91.7276 7.7 92.3809 6.94C93.0476 6.18 93.9409 5.8 95.0609 5.8C95.7809 5.8 96.3876 5.97333 96.8809 6.32C97.3876 6.65333 97.7543 7.13333 97.9809 7.76V6H100.421V16.84C100.421 18 100.034 18.9133 99.2609 19.58C98.5009 20.26 97.4609 20.6 96.1409 20.6H93.0009ZM95.9009 14.2C96.5409 14.2 97.0343 14.0133 97.3809 13.64C97.7409 13.2533 97.9209 12.72 97.9209 12.04V10.12C97.9209 9.44 97.7409 8.91333 97.3809 8.54C97.0343 8.15333 96.5409 7.96 95.9009 7.96C95.2609 7.96 94.7676 8.14667 94.4209 8.52C94.0743 8.88 93.9009 9.38667 93.9009 10.04V12.12C93.9009 12.7733 94.0743 13.2867 94.4209 13.66C94.7676 14.02 95.2609 14.2 95.9009 14.2ZM107.973 17.2C107.04 17.2 106.226 17.02 105.533 16.66C104.84 16.3 104.3 15.7933 103.913 15.14C103.54 14.4733 103.353 13.6933 103.353 12.8V10.2C103.353 9.30667 103.54 8.53333 103.913 7.88C104.3 7.21333 104.84 6.7 105.533 6.34C106.226 5.98 107.04 5.8 107.973 5.8C108.893 5.8 109.693 5.98 110.373 6.34C111.066 6.7 111.6 7.20667 111.973 7.86C112.36 8.5 112.553 9.25333 112.553 10.12V12.12H105.753V12.88C105.753 13.6267 105.946 14.1933 106.333 14.58C106.72 14.9533 107.266 15.14 107.973 15.14C108.493 15.14 108.933 15.0533 109.293 14.88C109.666 14.6933 109.886 14.4267 109.953 14.08H112.433C112.26 15.0267 111.766 15.7867 110.953 16.36C110.14 16.92 109.146 17.2 107.973 17.2ZM105.753 10.12V10.5L110.153 10.48V10.1C110.153 9.34 109.966 8.75333 109.593 8.34C109.22 7.92667 108.68 7.72 107.973 7.72C107.24 7.72 106.686 7.93333 106.313 8.36C105.94 8.77333 105.753 9.36 105.753 10.12Z" fill="white" style="fill:white;fill-opacity:1;"/>
<defs>
<clipPath id="clip0_1467_3502">
<rect width="20" height="20" rx="2" fill="white" style="fill:white;fill-opacity:1;"/>
</clipPath>
</defs>
</svg>
