<svg width="78" height="21" viewBox="0 0 78 21" fill="none" xmlns="http://www.w3.org/2000/svg">
<path fill-rule="evenodd" clip-rule="evenodd" d="M10 0C4.47715 0 0 4.47715 0 10C0 14.655 3.18065 18.5671 7.48724 19.6817C7.50935 19.6185 7.51952 19.5518 7.51952 19.4876C7.51952 19.3746 7.51767 19.1753 7.5152 18.9086C7.51234 18.6006 7.50865 18.2027 7.50601 17.7442C4.72449 18.3635 4.1376 16.3695 4.1376 16.3695C3.6827 15.1849 3.02708 14.8694 3.02708 14.8694C2.11912 14.2337 3.09583 14.2464 3.09583 14.2464C4.09954 14.3187 4.62748 15.3032 4.62748 15.3032C5.51946 16.8698 6.96826 16.4173 7.53794 16.1549C7.6288 15.4926 7.88725 15.0407 8.1727 14.7845C5.95226 14.5252 3.61763 13.6459 3.61763 9.71701C3.61763 8.59725 4.00745 7.68269 4.64713 6.96578C4.54401 6.70645 4.20083 5.6641 4.74536 4.25229C4.74536 4.25229 5.58453 3.9766 7.49496 5.30279C8.2924 5.07557 9.14818 4.96228 9.99842 4.95787C10.848 4.96228 11.7032 5.07557 12.5019 5.30279C14.4111 3.9766 15.249 4.25229 15.249 4.25229C15.7948 5.6641 15.4517 6.70645 15.3491 6.96578C15.99 7.68269 16.3768 8.59725 16.3768 9.71701C16.3768 13.656 14.0384 14.5227 11.8112 14.7763C12.1698 15.093 12.4896 15.7187 12.4896 16.6754C12.4896 17.5917 12.4841 18.3899 12.4805 18.9186C12.4787 19.1805 12.4773 19.3763 12.4773 19.4876C12.4773 19.5522 12.4873 19.6192 12.5091 19.6826C16.8176 18.5693 20 14.6563 20 10C20 4.47715 15.5228 0 10 0Z" fill="white" style="fill:white;fill-opacity:1;"/>
<path d="M31.54 17V2.4H36.14C37.1133 2.4 37.9533 2.58 38.66 2.94C39.38 3.3 39.94 3.80667 40.34 4.46C40.74 5.1 40.94 5.86 40.94 6.74C40.94 7.71333 40.7 8.56667 40.22 9.3C39.74 10.02 39.0933 10.5333 38.28 10.84L41.14 17H38.4L35.84 11.2H34.02V17H31.54ZM34.02 9H36.14C36.8467 9 37.4 8.80667 37.8 8.42C38.2 8.03333 38.4 7.5 38.4 6.82C38.4 6.14 38.1933 5.6 37.78 5.2C37.38 4.8 36.8333 4.6 36.14 4.6H34.02V9ZM48.0122 17.2C47.0789 17.2 46.2655 17.02 45.5722 16.66C44.8789 16.3 44.3389 15.7933 43.9522 15.14C43.5789 14.4733 43.3922 13.6933 43.3922 12.8V10.2C43.3922 9.30667 43.5789 8.53333 43.9522 7.88C44.3389 7.21333 44.8789 6.7 45.5722 6.34C46.2655 5.98 47.0789 5.8 48.0122 5.8C48.9322 5.8 49.7322 5.98 50.4122 6.34C51.1055 6.7 51.6389 7.20667 52.0122 7.86C52.3989 8.5 52.5922 9.25333 52.5922 10.12V12.12H45.7922V12.88C45.7922 13.6267 45.9855 14.1933 46.3722 14.58C46.7589 14.9533 47.3055 15.14 48.0122 15.14C48.5322 15.14 48.9722 15.0533 49.3322 14.88C49.7055 14.6933 49.9255 14.4267 49.9922 14.08H52.4722C52.2989 15.0267 51.8055 15.7867 50.9922 16.36C50.1789 16.92 49.1855 17.2 48.0122 17.2ZM45.7922 10.12V10.5L50.1922 10.48V10.1C50.1922 9.34 50.0055 8.75333 49.6322 8.34C49.2589 7.92667 48.7189 7.72 48.0122 7.72C47.2789 7.72 46.7255 7.93333 46.3522 8.36C45.9789 8.77333 45.7922 9.36 45.7922 10.12ZM55.5244 20.6V6H57.9644V8.02C58.1644 7.32667 58.5244 6.78667 59.0444 6.4C59.5644 6 60.211 5.8 60.9844 5.8C61.691 5.8 62.311 5.97333 62.8444 6.32C63.391 6.66667 63.811 7.16 64.1044 7.8C64.411 8.42667 64.5644 9.16 64.5644 10V12.98C64.5644 14.2467 64.2377 15.2667 63.5844 16.04C62.931 16.8133 62.0644 17.2 60.9844 17.2C60.211 17.2 59.5577 17 59.0244 16.6C58.5044 16.2 58.1444 15.64 57.9444 14.92L58.0244 17.52V20.6H55.5244ZM60.0444 15.04C60.6844 15.04 61.1777 14.8667 61.5244 14.52C61.8844 14.1733 62.0644 13.64 62.0644 12.92V10.08C62.0644 9.36 61.8844 8.82667 61.5244 8.48C61.1777 8.13333 60.6844 7.96 60.0444 7.96C59.4044 7.96 58.9044 8.15333 58.5444 8.54C58.1977 8.92667 58.0244 9.47333 58.0244 10.18V12.82C58.0244 13.5267 58.1977 14.0733 58.5444 14.46C58.9044 14.8467 59.4044 15.04 60.0444 15.04ZM71.9766 17.18C70.5632 17.18 69.4432 16.7867 68.6166 16C67.7899 15.2 67.3766 14.1267 67.3766 12.78V10.22C67.3766 8.86 67.7899 7.78667 68.6166 7C69.4432 6.21333 70.5632 5.82 71.9766 5.82C73.3899 5.82 74.5099 6.21333 75.3366 7C76.1632 7.78667 76.5766 8.86 76.5766 10.22V12.78C76.5766 14.1267 76.1632 15.2 75.3366 16C74.5099 16.7867 73.3899 17.18 71.9766 17.18ZM71.9766 15C72.6432 15 73.1566 14.82 73.5166 14.46C73.8899 14.0867 74.0766 13.5533 74.0766 12.86V10.14C74.0766 9.44667 73.8899 8.92 73.5166 8.56C73.1566 8.18667 72.6432 8 71.9766 8C71.3099 8 70.7899 8.18667 70.4166 8.56C70.0566 8.92 69.8766 9.44667 69.8766 10.14V12.86C69.8766 13.5533 70.0566 14.0867 70.4166 14.46C70.7899 14.82 71.3099 15 71.9766 15Z" fill="white" style="fill:white;fill-opacity:1;"/>
</svg>
